<svg xmlns="http://www.w3.org/2000/svg" width="512" height="512" viewBox="0 0 512 512"><path fill="#CF2028" d="M512 472c0 22.1-17.9 40-40 40H40c-22.1 0-40-17.9-40-40V40C0 17.9 17.9 0 40 0h432c22.1 0 40 17.9 40 40v432z"/><path fill-rule="evenodd" clip-rule="evenodd" fill="#FFF" d="M256 167.1c23.4 18.5 61 22.6 76 49.4 11.4 4.2 24.4 6.6 32.3 14.3-5 17.1-36.6 8.6-55.1 9.5-1.8-3.9 12-13.1 6.7-23.8-5.6-8.7-26.2 2.4-31.4-7.6 9 2.8 17.5-1 26.6-1-6.6-19.9-38.8-5.8-51.3-17.1 6.1 1.3 17.3 2.2 20.9-1.9-11.8-3.7-22.7-8.2-24.7-21.8zM136.3 248.9h6.7c-1.5 9.3-4.3 17.3-6.7 25.7h-6.7c2-8.8 4.9-16.8 6.7-25.7zM181.9 248.9c-.5 12.5-25 1-31.4 7.6 5.9 5.5 25.2-2.4 28.5 5.7 1.5 18-22 11-37.1 12.4-.5-13.4 23.1-2.8 31.4-7.6-5.8-5.2-23.8 1.6-28.5-4.8-2.3-19.1 21.7-11.9 37.1-13.3zM187.6 248.9c10.2.9 24.2-2 31.4 1.9-.2 1.1.2 1.7 1 1.9 0 6.1-2 10-6.7 11.4 1.1 3 1.1 7.2 2.9 9.5-.4 2.1-4.7.4-6.7 1-1.3-2.5-1.3-6.3-2.9-8.6h-15.2c-3.1 1-2.1 6.2-3.8 8.6h-6.7c2.5-8.3 5.1-16.5 6.7-25.7zm4.7 10.4c6.5-1.4 18.9 3.1 20.9-2.9-3.3-2.5-21.6-4.9-20.9 2.9zM244.6 248.9c4.5 6.5 5.3 16.9 7.6 25.7h-4.8c-3.2 0-1.9-4.4-3.8-5.7-13.5-3.3-14.7 5.5-24.7 5.7 7.9-9.3 11.4-23 25.7-25.7zm-9.5 14.2c2.9-.3 7.4 1.1 7.6-1.9-2.2-.7-.3-5.4-3.8-4.8-1 2.5-3.4 3.6-3.8 6.7zM294 248.9c-.1 12.2-23.6 1.1-29.5 7.6 5.2 4.3 18.3.7 26.6 1.9.7 2.9-1.6 2.8-.9 5.7-7.2 3.3-22.9-2-28.5 2.9 7 2.2 18 .3 26.6 1 .8 3.3-1.4 3.7-1 6.7h-28.5c-5.2-2.1-3.2-17.1 1-21.9 6.8-7.9 22.5-2.1 34.2-3.9zM304.5 248.9c-.5 7.4-3.4 12.4-4.8 19h26.6c.8 3.3-1.4 3.7-1 6.7h-28.5c-7.4-5.8.7-17.2 1.9-25.7h5.8zM468.9 283.1c-38-9.6-85.5-17.8-137.8-16.2-1.3-4.2 1.2-11.9 3.8-15.2 52.8 2.3 96 14.2 134 31.4zM180 302.1c-2.8 3.2-1 11.1-8.6 9.5-.8-7.9 4.6-17.5 5.7-26.6 11.8 1.9 30.6-4.4 33.3 4.8 3.6 12.2-15 13.8-30.4 12.3zm1.9-5.7c6.8-1.7 21 3.9 21.9-3.8-5.4-2.2-14.9-.3-21.9-1v4.8z"/><path fill-rule="evenodd" clip-rule="evenodd" fill="#FFF" d="M246.5 286.9c6 20.8-13.9 28.4-34.2 22.8-6.8-21.1 15.6-30.3 34.2-22.8zm-25.7 4.7c-.9 4.1-3.9 10.3-2.9 13.3h19c2.2-3.5 3.7-7.7 3.8-13.3h-19.9z"/><path fill-rule="evenodd" clip-rule="evenodd" fill="#FFF" d="M288.3 285c.3 13.3-23 3-31.4 7.6 4.1 7.3 24.3-1.5 28.5 5.7-.1 19.5-22.9 11.5-37.1 12.4-.4-2 .7-2.5 1-3.8 5.9-5.5 24.5 1.7 30.4-3.8-5.6-5.5-24.2 2.1-28.5-4.8-3.2-16.5 20.8-13.2 37.1-13.3zM326.3 285.9c-.8 1.1-1.3 2.5-1 4.8-2.8 1.9-9 .5-13.3 1-6.7 3.8-.2 20.7-12.4 19 1.1-6.5 2.9-12.3 4.8-18.1-2.6-2.2-9.2-.3-13.3-1 .5-12.6 26-5 35.2-5.7zM170.5 285.9c-.5 6.5-2.7 11.3-3.8 17.1-46.7 8.5-88.7 21.6-123.6 41.9 31.3-27 78.4-46.5 127.4-59z"/></svg>